ply
format ascii 1.0
comment Created by Open Asset Import Library - http://assimp.sf.net (v5.3.0)
element vertex 50
property float x
property float y
property float z
element face 80
property list uchar int vertex_index
end_header
0.577350259 0.577350259 0.577350259
-0.577350259 -0.577350259 0.577350259
0.577350259 -0.577350259 -0.577350259
-0.577350259 0.577350259 -0.577350259
0.577350259 3.57735014 0.577350259
0.577350259 3.57735014 -0.577350259
-0.577350259 3.57735014 -0.577350259
-0.577350259 3.57735014 0.577350259
0.577350259 2.42264986 0.577350259
0.577350259 2.42264986 -0.577350259
-0.577350259 2.42264986 0.577350259
-0.577350259 2.42264986 -0.577350259
4 0 0
3 1 0
3 0 1
3 -1 0
3 0 -1
2 0 0
3.93417239 3 0.356822103
3.57735014 3.57735014 0.577350259
3 3.35682201 0.934172332
3 2.64317799 0.934172332
3.57735014 2.42264986 0.577350259
3.35682201 3.93417239 0
3.93417239 3 -0.356822103
3.57735014 3.57735014 -0.577350259
2.64317799 3.93417239 0
2.42264986 3.57735014 0.577350259
3 3.35682201 -0.934172332
2.42264986 3.57735014 -0.577350259
3.57735014 2.42264986 -0.577350259
3 2.64317799 -0.934172332
3.35682201 2.06582761 0
2.42264986 2.42264986 0.577350259
2.64317799 2.06582761 0
2.06582761 3 0.356822103
2.06582761 3 -0.356822103
2.42264986 2.42264986 -0.577350259
6 2.02573109 0.850650787
6 0.974268913 0.850650787
6.85065079 1.5 0.525731087
6.52573109 2.35065079 0
5.47426891 2.35065079 0
5.14934921 1.5 0.525731087
6 2.02573109 -0.850650787
6 0.974268913 -0.850650787
5.14934921 1.5 -0.525731087
6.85065079 1.5 -0.525731087
6.52573109 0.649349213 0
5.47426891 0.649349213 0
3 0 1 2
3 0 3 1
3 0 2 3
3 1 3 2
3 4 5 6
3 4 6 7
3 4 8 9
3 4 9 5
3 4 7 10
3 4 10 8
3 5 9 11
3 5 11 6
3 8 10 11
3 8 11 9
3 7 6 11
3 7 11 10
3 12 13 14
3 12 15 16
3 12 14 15
3 12 16 13
3 17 13 16
3 17 15 14
3 17 14 13
3 17 16 15
3 18 19 20
3 21 18 20
3 18 21 22
3 23 19 18
3 24 23 18
3 23 24 25
3 20 19 23
3 26 20 23
3 20 26 27
3 23 25 28
3 29 23 28
3 23 29 26
3 28 25 24
3 30 28 24
3 28 30 31
3 32 22 21
3 33 32 21
3 32 33 34
3 18 22 32
3 30 18 32
3 18 30 24
3 35 27 26
3 29 35 26
3 35 29 36
3 20 27 35
3 33 20 35
3 20 33 21
3 31 30 32
3 34 31 32
3 31 34 37
3 36 29 28
3 31 36 28
3 36 31 37
3 34 33 35
3 36 34 35
3 34 36 37
3 38 39 40
3 38 41 42
3 38 42 43
3 38 40 41
3 38 43 39
3 44 45 46
3 44 41 47
3 44 42 41
3 44 47 45
3 44 46 42
3 39 48 40
3 39 49 48
3 39 43 49
3 45 48 49
3 45 49 46
3 45 47 48
3 41 40 47
3 48 47 40
3 42 46 43
3 49 43 46
